<svg xmlns="http://www.w3.org/2000/svg" xmlns:xlink="http://www.w3.org/1999/xlink" width="76" height="76" version="1.1" viewBox="0 0 76 76"><title>UserIcon</title><desc>Created with Sketch.</desc><defs><circle id="path-1" cx="36" cy="36" r="36"/><circle id="path-3" cx="36" cy="36" r="36"/></defs><g id="Page-1" fill="none" fill-rule="evenodd" stroke="none" stroke-width="1"><g id="Artboard-26" transform="translate(-789.000000, -1127.000000)"><g id="Logo" transform="translate(203.000000, 1065.000000)"><g id="Fill-45-Copy-+-Oppia"><g id="UserIcon" transform="translate(588.000000, 64.000000)"><mask id="mask-2" fill="#fff"><use xlink:href="#path-1"/></mask><use id="Border" stroke="#0D47A1" stroke-width="2" xlink:href="#path-1"/><g id="OwlIcon-Copy-3" mask="url(#mask-2)"><mask id="mask-4" fill="#fff"><use xlink:href="#path-3"/></mask><use id="Mask" fill="#FFF" xlink:href="#path-3"/><g id="ic_person_48px-copy" mask="url(#mask-4)"><g id="Shape"><path fill="#0D47A1" fill-rule="evenodd" d="M39,51.1875 C46.1825,51.1875 52,45.35375 52,38.1875 C52,31.005 46.1825,25.1875 39,25.1875 C31.8175,25.1875 26,31.005 26,38.1875 C26,45.35375 31.8175,51.1875 39,51.1875 L39,51.1875 Z M39,57.6875 C30.33875,57.6875 13,62.02625 13,70.6875 L13,77.1875 L65,77.1875 L65,70.6875 C65,62.02625 47.66125,57.6875 39,57.6875 L39,57.6875 Z" transform="translate(-2.166667, -4.833333)"/><path fill="none" d="M3.63797881e-12,0 L78,0 L78,78 L3.63797881e-12,78 L3.63797881e-12,0 Z" transform="translate(-2.166667, -4.833333)"/></g></g></g></g></g></g></g></g></svg>