<svg xmlns="http://www.w3.org/2000/svg" xmlns:xlink="http://www.w3.org/1999/xlink" id="astronomy_1_" x="0" y="0" enable-background="new 0 0 186.9 187.2" version="1.1" viewBox="0 0 186.9 187.2" xml:space="preserve"><rect width="186.7" height="186.7" x=".2" y="0" fill="none"/><path fill="#EFF4FB" d="M93.6,13.8C49.6,13.8,14,49.4,14,93.4c0,43.9,35.6,79.5,79.5,79.5c43.9,0,79.5-35.6,79.5-79.5	C173.1,49.4,137.5,13.8,93.6,13.8z M128.7,128.2l-28.2-17l-6.9,53.1l-6.9-53.1l-28.4,17l17-28.2l-45-6.9l45-6.9l-17-28.4l28.4,17	L93.6,23l6.9,51.9l28.4-17l-17.3,28.4l46.2,6.8l-46.2,6.8L128.7,128.2z"/></svg>