<svg xmlns="http://www.w3.org/2000/svg" xmlns:xlink="http://www.w3.org/1999/xlink" id="combinatorics_1_" x="0" y="0" enable-background="new 0 0 186.9 187.2" version="1.1" viewBox="0 0 186.9 187.2" xml:space="preserve"><rect width="186.7" height="186.7" x=".2" y="0" fill="none"/><circle cx="70.3" cy="95.7" r="4.4" fill="#EFF4FB"/><circle cx="91.3" cy="116.7" r="4.4" fill="#EFF4FB"/><rect width="3.9" height="55" x="91.6" y="65.9" fill="#EFF4FB" transform="matrix(-0.7071 -0.7071 0.7071 -0.7071 93.7289 225.5622)"/><circle cx="70.3" cy="69.2" r="4.4" fill="#EFF4FB"/><circle cx="70.3" cy="42.7" r="4.4" fill="#EFF4FB"/><circle cx="117.7" cy="90.2" r="4.4" fill="#EFF4FB"/><path fill="#EFF4FB" d="M93.6,13.8C49.6,13.8,14,49.4,14,93.4c0,43.9,35.6,79.5,79.5,79.5c43.9,0,79.5-35.6,79.5-79.5	C173.1,49.4,137.5,13.8,93.6,13.8z M121.4,155.1c-2.3,2.3-6,2.3-8.2,0L31.8,73.8c-2.3-2.3-2.3-6,0-8.2l33.9-33.9	c2.3-2.3,6-2.3,8.2,0l81.4,81.4c2.3,2.3,2.3,6,0,8.2L121.4,155.1z"/><circle cx="144.2" cy="116.7" r="4.4" fill="#EFF4FB"/><circle cx="117.7" cy="116.7" r="4.4" fill="#EFF4FB"/><circle cx="117.7" cy="143.1" r="4.4" fill="#EFF4FB"/></svg>