<svg xmlns="http://www.w3.org/2000/svg" xmlns:xlink="http://www.w3.org/1999/xlink" id="Layer_4_copy" x="0" y="0" enable-background="new 0 0 186.7 186.7" version="1.1" viewBox="0 0 186.7 186.7" xml:space="preserve"><g><rect width="186.7" height="186.7" x="0" y="0" fill="none"/><path fill="#EEF4FB" d="M93.4,13.8c-43.9,0-79.5,35.6-79.5,79.5c0,43.9,35.6,79.5,79.5,79.5c43.9,0,79.5-35.6,79.5-79.5 C172.9,49.4,137.3,13.8,93.4,13.8z M136.5,120.4v0.1h0c-1,5.9-7.2,11.3-15.6,12.9c-9.9,1.8-19-2.4-20.3-9.5s5.6-14.3,15.5-16.2 c4.7-0.9,9.3-0.3,12.9,1.2V61.4l-52.8,6.8v58c0.2,1,0.1,2,0,2.9v0.1h0c-1,5.9-7.2,11.3-15.6,12.9c-9.9,1.8-19-2.4-20.3-9.5 c-1.3-7.1,5.6-14.3,15.5-16.2c4.7-0.9,9.3-0.3,12.9,1.2V50.8l67.7-8.7v75.4C136.7,118.5,136.7,119.4,136.5,120.4z"/></g></svg>