<svg xmlns="http://www.w3.org/2000/svg" xmlns:xlink="http://www.w3.org/1999/xlink" id="statistics" x="0" y="0" enable-background="new 0 0 186.9 187.2" version="1.1" viewBox="0 0 186.9 187.2" xml:space="preserve"><rect width="186.7" height="186.7" x=".2" y="0" fill="none"/><path fill="#EFF4FB" d="M93.6,13.8C49.6,13.8,14,49.4,14,93.4c0,43.9,35.6,79.5,79.5,79.5c43.9,0,79.5-35.6,79.5-79.5	C173.1,49.4,137.5,13.8,93.6,13.8z M140,137.8H51.1c-1.1,0-2-0.9-2-2V50.9c0-1.1,0.9-2,2-2s2,0.9,2,2v82.9h3.4V67.5h15.7v66.3h4.9	v-40h15.7v40h4.9V58.2h15.7v75.7h4.9v-30H134v30h6c1.1,0,2,0.9,2,2S141.1,137.8,140,137.8z"/></svg>