<svg xmlns="http://www.w3.org/2000/svg" xmlns:xlink="http://www.w3.org/1999/xlink" id="statistics" x="0" y="0" enable-background="new 44.8 134.7 520.6 521" version="1.1" viewBox="44.8 134.7 520.6 521" xml:space="preserve"><path fill="#FFF" d="M458.4,540.7H167.3c-3.6,0-6.5-2.9-6.5-6.5v-278c0-3.6,2.9-6.5,6.5-6.5c3.6,0,6.5,2.9,6.5,6.5v271.5H185	V310.5h51.4v217.1h16v-131h51.4v131h16V280.1h51.4V528h16v-98.2h51.4V528h19.6c3.6,0,6.5,2.9,6.5,6.5	C465,538.1,462,540.7,458.4,540.7z"/><path fill="none" d="M305.5,134.7c-144.1,0-260.6,116.6-260.6,260.6c0,143.7,116.6,260.3,260.3,260.3s260.3-116.6,260.3-260.3	C565.8,251.3,449.2,134.7,305.5,134.7z"/></svg>