<svg xmlns="http://www.w3.org/2000/svg" xmlns:xlink="http://www.w3.org/1999/xlink" width="48" height="48" version="1.1" viewBox="0 0 48 48"><title>7D43BFD7-E509-4B6F-B2CC-826C6D5E292D</title><desc>Created with sketchtool.</desc><defs><rect id="path-1" width="600" height="956" x="0" y="0" fill="none"/></defs><g id="Page-1" fill="none" fill-rule="evenodd" stroke="none" stroke-width="1"><g id="Asset-Sheet" transform="translate(-50.000000, -50.000000)"><g id="math_keypad_icon_delete" transform="translate(50.000000, 50.000000)"><rect id="bounds" width="48" height="48" x="0" y="0" fill="#F08" fill-opacity="0" fill-rule="evenodd"/><path id="outline" fill="#888D93" fill-rule="evenodd" d="M13,24 L13,24 L19,30 L33,30 L33,18 L19,18 L13,24 Z M11.5857864,22.5857864 L11.5857864,22.5857864 L17.5857864,16.5857864 C17.9608592,16.2107137 18.469567,16 19,16 L33,16 C34.1045695,16 35,16.8954305 35,18 L35,30 C35,31.1045695 34.1045695,32 33,32 L19,32 C18.469567,32 17.9608592,31.7892863 17.5857864,31.4142136 L11.5857864,25.4142136 C10.8047379,24.633165 10.8047379,23.366835 11.5857864,22.5857864 L11.5857864,22.5857864 Z"/><path id="slash" stroke="#888D93" stroke-linecap="round" stroke-linejoin="round" stroke-width="2" d="M23,21 L29,27"/><path id="slash" stroke="#888D93" stroke-linecap="round" stroke-linejoin="round" stroke-width="2" d="M23,21 L29,27" transform="translate(26.000000, 24.000000) scale(-1, 1) translate(-26.000000, -24.000000)"/></g></g><g id="Math-Input" transform="translate(-250.000000, -1146.000000)"><g id="Asset-Sheet" transform="translate(200.000000, 1096.000000)"><mask id="mask-2" fill="#fff"><use xlink:href="#path-1"/></mask><use id="Mask" fill="#FAFAFA" xlink:href="#path-1"/><g id="math_keypad_icon_delete" mask="url(#mask-2)"><g transform="translate(50.000000, 50.000000)"><rect id="bounds" width="48" height="48" x="0" y="0" fill="#F08" fill-opacity="0" fill-rule="evenodd" stroke="none"/><path id="outline" fill="#888D93" fill-rule="evenodd" stroke="none" d="M13,24 L13,24 L19,30 L33,30 L33,18 L19,18 L13,24 Z M11.5857864,22.5857864 L11.5857864,22.5857864 L17.5857864,16.5857864 C17.9608592,16.2107137 18.469567,16 19,16 L33,16 C34.1045695,16 35,16.8954305 35,18 L35,30 C35,31.1045695 34.1045695,32 33,32 L19,32 C18.469567,32 17.9608592,31.7892863 17.5857864,31.4142136 L11.5857864,25.4142136 C10.8047379,24.633165 10.8047379,23.366835 11.5857864,22.5857864 L11.5857864,22.5857864 Z"/><path id="slash" fill="none" stroke="#888D93" stroke-linecap="round" stroke-linejoin="round" stroke-width="2" d="M23,21 L29,27"/><path id="slash" fill="none" stroke="#888D93" stroke-linecap="round" stroke-linejoin="round" stroke-width="2" d="M23,21 L29,27" transform="translate(26.000000, 24.000000) scale(-1, 1) translate(-26.000000, -24.000000)"/></g></g></g></g></g></svg>