<svg xmlns="http://www.w3.org/2000/svg" xmlns:xlink="http://www.w3.org/1999/xlink" width="48" height="48" version="1.1" viewBox="0 0 48 48"><title>3A1C17C5-47F6-48A0-8859-8FA964A9E255</title><desc>Created with sketchtool.</desc><defs><rect id="path-1" width="600" height="956" x="0" y="0" fill="none"/></defs><g id="Page-1" fill="none" fill-rule="evenodd" stroke="none" stroke-width="1"><g id="Asset-Sheet" transform="translate(-118.000000, -450.000000)"><g id="math_keypad_icon_fraction" transform="translate(118.000000, 450.000000)"><rect id="bounds" width="48" height="48" x="0" y="0" fill="#F08" fill-opacity="0"/><g id="fraction" stroke-width="1" transform="translate(12.000000, 12.000000)"><rect id="bounds" width="24" height="24" x="0" y="0" fill="#F08" fill-opacity="0"/><path id="block" fill="#3B3E40" d="M8,16.9970301 C8,16.4463856 8.45303631,16 8.99703014,16 L15.0029699,16 C15.5536144,16 16,16.4530363 16,16.9970301 L16,23.0029699 C16,23.5536144 15.5469637,24 15.0029699,24 L8.99703014,24 C8.4463856,24 8,23.5469637 8,23.0029699 L8,16.9970301 Z M10,18 L14,18 L14,22 L10,22 L10,18 Z"/><rect id="bar" width="20" height="2" x="2" y="11" fill="#3B3E40" rx="1"/><path id="block" fill="#3B3E40" d="M8,0.997030139 C8,0.446385598 8.45303631,0 8.99703014,0 L15.0029699,0 C15.5536144,0 16,0.453036308 16,0.997030139 L16,7.00296986 C16,7.5536144 15.5469637,8 15.0029699,8 L8.99703014,8 C8.4463856,8 8,7.54696369 8,7.00296986 L8,0.997030139 Z M10,2 L14,2 L14,6 L10,6 L10,2 Z"/></g></g></g><g id="Math-Input" transform="translate(-318.000000, -1546.000000)"><g id="Asset-Sheet" transform="translate(200.000000, 1096.000000)"><mask id="mask-2" fill="#fff"><use xlink:href="#path-1"/></mask><use id="Mask" fill="#FAFAFA" xlink:href="#path-1"/><g id="math_keypad_icon_fraction" mask="url(#mask-2)"><g transform="translate(118.000000, 450.000000)"><rect id="bounds" width="48" height="48" x="0" y="0" fill="#F08" fill-opacity="0"/><g id="fraction" fill="none" stroke-width="1" transform="translate(12.000000, 12.000000)"><rect id="bounds" width="24" height="24" x="0" y="0" fill="#F08" fill-opacity="0"/><path id="block" fill="#3B3E40" d="M8,16.9970301 C8,16.4463856 8.45303631,16 8.99703014,16 L15.0029699,16 C15.5536144,16 16,16.4530363 16,16.9970301 L16,23.0029699 C16,23.5536144 15.5469637,24 15.0029699,24 L8.99703014,24 C8.4463856,24 8,23.5469637 8,23.0029699 L8,16.9970301 Z M10,18 L14,18 L14,22 L10,22 L10,18 Z"/><rect id="bar" width="20" height="2" x="2" y="11" fill="#3B3E40" rx="1"/><path id="block" fill="#3B3E40" d="M8,0.997030139 C8,0.446385598 8.45303631,0 8.99703014,0 L15.0029699,0 C15.5536144,0 16,0.453036308 16,0.997030139 L16,7.00296986 C16,7.5536144 15.5469637,8 15.0029699,8 L8.99703014,8 C8.4463856,8 8,7.54696369 8,7.00296986 L8,0.997030139 Z M10,2 L14,2 L14,6 L10,6 L10,2 Z"/></g></g></g></g></g></g></svg>