<svg xmlns="http://www.w3.org/2000/svg" xmlns:xlink="http://www.w3.org/1999/xlink" width="48" height="48" version="1.1" viewBox="0 0 48 48"><title>E26A7B0C-2446-4BCD-822A-3E8737D8FBC3</title><desc>Created with sketchtool.</desc><defs><rect id="path-1" width="600" height="956" x="0" y="0" fill="none"/></defs><g id="Page-1" fill="none" fill-rule="evenodd" stroke="none" stroke-width="1"><g id="Asset-Sheet" transform="translate(-502.000000, -654.000000)"><g id="math_keypad_icon_exponent" transform="translate(502.000000, 654.000000)"><g id="icon"><rect id="bounds" width="48" height="48" x="0" y="0" fill="#F08" fill-opacity="0"/><path id="block" fill="#3B3E40" d="M28,16.9970301 C28,16.4463856 28.4530363,16 28.9970301,16 L35.0029699,16 C35.5536144,16 36,16.4530363 36,16.9970301 L36,23.0029699 C36,23.5536144 35.5469637,24 35.0029699,24 L28.9970301,24 C28.4463856,24 28,23.5469637 28,23.0029699 L28,16.9970301 Z M30,18 L34,18 L34,22 L30,22 L30,18 Z"/><path id="block" fill="#3B3E40" d="M14,21.0008717 C14,20.4481055 14.455761,20 15.0024733,20 L24.9975267,20 C25.5511774,20 26,20.4446309 26,21.0008717 L26,34.9991283 C26,35.5518945 25.544239,36 24.9975267,36 L15.0024733,36 C14.4488226,36 14,35.5553691 14,34.9991283 L14,21.0008717 Z M16,22 L24,22 L24,34 L16,34 L16,22 Z"/></g></g></g><g id="Math-Input" transform="translate(-702.000000, -1750.000000)"><g id="Asset-Sheet" transform="translate(200.000000, 1096.000000)"><mask id="mask-2" fill="#fff"><use xlink:href="#path-1"/></mask><use id="Mask" fill="#FAFAFA" xlink:href="#path-1"/><g id="math_keypad_icon_exponent" mask="url(#mask-2)"><g id="icon"><g transform="translate(502.000000, 654.000000)"><rect id="bounds" width="48" height="48" x="0" y="0" fill="#F08" fill-opacity="0"/><path id="block" fill="#3B3E40" d="M28,16.9970301 C28,16.4463856 28.4530363,16 28.9970301,16 L35.0029699,16 C35.5536144,16 36,16.4530363 36,16.9970301 L36,23.0029699 C36,23.5536144 35.5469637,24 35.0029699,24 L28.9970301,24 C28.4463856,24 28,23.5469637 28,23.0029699 L28,16.9970301 Z M30,18 L34,18 L34,22 L30,22 L30,18 Z"/><path id="block" fill="#3B3E40" d="M14,21.0008717 C14,20.4481055 14.455761,20 15.0024733,20 L24.9975267,20 C25.5511774,20 26,20.4446309 26,21.0008717 L26,34.9991283 C26,35.5518945 25.544239,36 24.9975267,36 L15.0024733,36 C14.4488226,36 14,35.5553691 14,34.9991283 L14,21.0008717 Z M16,22 L24,22 L24,34 L16,34 L16,22 Z"/></g></g></g></g></g></g></svg>