<svg xmlns="http://www.w3.org/2000/svg" xmlns:svg="http://www.w3.org/2000/svg" xmlns:xlink="http://www.w3.org/1999/xlink" id="svg1650" x="0" y="0" version="1.1" viewBox="0 0 24 24" xml:space="preserve" style="enable-background:new 0 0 24 24"><g id="layer1" fill="#fff" transform="translate(-118.99908,-256.27405)"><path id="path1575" d="M135.1,256.3c-0.1,0-0.1,0-0.2,0c-2.1,0.4-3.2,2.6-3.3,4.6c-0.2,1.8,0.5,4.1,2.4,4.5c0.3,0.1,0.6,0,0.8,0 c2.3-0.8,3.3-3.6,3-6C137.8,257.9,136.7,256.3,135.1,256.3z M126.4,256.4c-1.3,0-2.3,1.4-2.5,2.6c-0.4,2.5,0.7,5.6,3.2,6.4 c0.2,0.1,0.5,0.1,0.7,0c1.7-0.3,2.4-2.3,2.3-3.9c-0.1-2.1-1.1-4.5-3.2-5.1C126.8,256.4,126.6,256.4,126.4,256.4z M140.7,263.5 c-2.2,0.1-3.7,2.4-3.9,4.6c-0.3,1.5,0.5,3.6,2.2,3.7c2.4,0,4-2.6,4-4.9C143.1,265.4,142.3,263.6,140.7,263.5z M121.4,264 c-0.9,0-1.9,0.6-2.2,1.6c-0.8,2.7,0.8,6,3.5,6.6c1.1,0.2,2.1-0.7,2.4-1.8c0.6-2.3-0.6-5-2.7-6.1C122.1,264.1,121.7,264,121.4,264z M131.3,268.7c-1.8,0-3.7,1-4.9,2.4c-1.3,1.7-2.3,3.6-2.8,5.8c-0.5,1.5,0.6,3.3,2.2,3.3c1.9,0.1,3.5-1.3,5.4-1.4 c1.6-0.3,3,0.6,4.5,1.2c1.2,0.5,2.9,0.3,3.5-1c0.5-1.4-0.2-2.9-0.8-4.1c-1.2-2-2.5-4.1-4.5-5.4 C133.1,268.9,132.2,268.6,131.3,268.7z"/></g></svg>