<svg xmlns="http://www.w3.org/2000/svg" width="1.173ex" height="2.021ex" focusable="false" viewBox="0 -766.3 505 870.2" style="vertical-align:-.241ex"><g fill="currentColor" stroke="currentColor" stroke-width="0"><path stroke-width="10" d="M213 578L200 573Q186 568 160 563T102 556H83V602H102Q149 604 189 617T245 641T273 663Q275 666 285 666Q294 666 302 660V361L303 61Q310 54 315 52T339 48T401 46H427V0H416Q395 3 257 3Q121 3 100 0H88V46H114Q136 46 152 46T177 47T193 50T201 52T207 57T213 61V578Z" transform="matrix(1 0 0 -1 0 0)"/></g></svg>